<?xml version="1.0" encoding="UTF-8"?>
<!DOCTYPE svg PUBLIC "-//W3C//DTD SVG 1.1//EN" "http://www.w3.org/Graphics/SVG/1.1/DTD/svg11.dtd">
<svg version="1.1" id="Layer_1" xmlns="http://www.w3.org/2000/svg" xmlns:xlink="http://www.w3.org/1999/xlink" x="0px" y="0px" width="32px" height="32px" viewBox="0 0 32 32" enable-background="new 0 0 32 32" xml:space="preserve">
  <g id="main">
    <g id="icon">
      <path d="M1,26.9L1.088,27.32L1.323,27.67L1.662,27.91L2.062,28L17.82,28L18.45,27.1L18.34,26.81L17.31,26.63L17.04,26.56L16.79,26.44L16.37,26.09L16.1,25.62L16.03,25.35L16,25.07L16,23.88L16.03,23.6L16.1,23.33L16.37,22.86L16.79,22.51L17.04,22.39L17.31,22.32L18.41,22.12L18.55,21.78L17.93,20.89L17.78,20.64L17.69,20.38L17.64,19.84L17.78,19.31L17.92,19.07L18.1,18.86L18.94,18.02L19.18,17.82L19.46,17.67L19.75,17.58L20.06,17.55L20.54,17.63L20.98,17.84L21.95,18.53L22.17,18.44L22.37,17.31L22.44,17.04L22.56,16.79L22.91,16.37L23.38,16.1L23.65,16.03L23.93,16L25.12,16L25.4,16.03L25.67,16.1L26.14,16.37L26.49,16.79L26.61,17.04L26.68,17.31L26.89,18.51L27.18,18.63L28.11,17.98L28.54,17.76L29,17.69L28.99,10L1,10zz" fill-rule="evenodd" fill="#E9B664"/>
      <path d="M1.733,3.094L1.352,3.352L1.094,3.733L1,4.2L1,9L29,9L29,7.2L28.91,6.733L28.65,6.352L28.27,6.094L27.8,6L15.83,6L15.44,5.961L15.06,5.848L14.72,5.664L14.41,5.414L12.59,3.586L12.28,3.336L11.94,3.152L11.56,3.039L11.17,3L2.2,3zz" fill-rule="evenodd" fill="#ecc074"/>
    </g>
    <g id="overlay">
      <path d="M32,25.1684v-1.1862c0,-0.2849,-0.2049,-0.5284,-0.4855,-0.5773l-1.7273,-0.3005c-0.111,-0.4044,-0.2712,-0.8016,-0.4802,-1.1849l1.0345,-1.4702c0.1639,-0.233,0.1365,-0.5501,-0.0649,-0.7515l-0.8389,-0.8389c-0.2014,-0.2014,-0.5185,-0.2288,-0.7515,-0.0649l-1.4282,1.0049c-0.3951,-0.2322,-0.8161,-0.4135,-1.2529,-0.5414l-0.3083,-1.772c-0.0488,-0.2806,-0.2924,-0.4855,-0.5773,-0.4855h-1.1864c-0.2849,0,-0.5284,0.2049,-0.5773,0.4855l-0.3003,1.7262c-0.4096,0.107,-0.8125,0.2629,-1.2013,0.4699l-1.454,-1.023c-0.233,-0.1639,-0.5501,-0.1365,-0.7515,0.0649l-0.8389,0.8389c-0.2014,0.2014,-0.2288,0.5185,-0.0649,0.7515l0.9738,1.384c-0.2485,0.4108,-0.416,0.8511,-0.5502,1.3083l-1.6841,0.2963c-0.2801,0.0493,-0.4844,0.2926,-0.4844,0.5771v1.1883c0,0.2844,0.2043,0.5278,0.4844,0.5771l1.63,0.2869c0.1111,0.4348,0.265,0.8622,0.4886,1.2734l-0.9861,1.3947c-0.1646,0.2328,-0.1377,0.5503,0.0637,0.7522l0.8356,0.8373c0.2014,0.2018,0.5189,0.2294,0.7521,0.0652l1.3403,-0.9438c0.4257,0.2545,0.8815,0.4252,1.3557,0.5575l0.2893,1.6473c0.0492,0.2802,0.2926,0.4846,0.5771,0.4846h1.1882c0.2844,0,0.5278,-0.2043,0.5771,-0.4844l0.2871,-1.6311c0.4295,-0.1154,0.8514,-0.2731,1.257,-0.4989l1.4109,0.9975c0.2328,0.1646,0.5503,0.1377,0.7522,-0.0637l0.8373,-0.8356c0.2018,-0.2014,0.2294,-0.5189,0.0652,-0.7521l-0.9749,-1.3844c0.2382,-0.41,0.4225,-0.8465,0.5487,-1.3003l1.7351,-0.3013C31.795,25.697,32,25.4533,32,25.1684zM25.7239,26.7708c-1.2182,0.7033,-2.7759,0.2859,-3.4792,-0.9322c-0.7033,-1.2182,-0.2859,-2.7758,0.9322,-3.4792c1.2182,-0.7033,2.7758,-0.2859,3.4792,0.9322C27.3594,24.5098,26.942,26.0675,25.7239,26.7708z" fill-rule="evenodd" fill="#797979"/>
    </g>
  </g>
</svg>