<?xml version="1.0" encoding="UTF-8"?>
<!DOCTYPE svg PUBLIC "-//W3C//DTD SVG 1.1//EN" "http://www.w3.org/Graphics/SVG/1.1/DTD/svg11.dtd">
<svg version="1.1" id="Layer_1" xmlns="http://www.w3.org/2000/svg" xmlns:xlink="http://www.w3.org/1999/xlink" x="0px" y="0px" width="16px" height="16px" viewBox="0 0 16 16" enable-background="new 0 0 16 16" xml:space="preserve">
  <g id="icon">
    <path d="M7.752,3.8158c-0.1926,0,-0.3773,0.0824,-0.5341,0.2382l-3.724,3.7241c-0.1427,0.1448,-0.221,0.3344,-0.2215,0.5351c-0.0006,0.2033,0.0786,0.3935,0.2228,0.5356c0.1441,0.142,0.3344,0.2202,0.5359,0.2202c0.2025,0,0.3919,-0.0792,0.5334,-0.2229L7,6.4107l-0.0123,7.7328c0,0.4174,0.3392,0.7566,0.7562,0.7566S8.5,14.5608,8.5,14.1438l0.0029,-7.7343l2.4379,2.4379c0.1408,0.1425,0.3304,0.2215,0.5327,0.2215c0.2016,0,0.3918,-0.0783,0.5357,-0.2205c0.144,-0.1422,0.223,-0.3324,0.2225,-0.5354c-0.0004,-0.201,-0.0787,-0.3906,-0.2205,-0.534L8.2867,4.0545C8.1305,3.8983,7.9456,3.8158,7.752,3.8158z" fill="#fff"/>
    <path d="M3.8,1.4945c-0.4684,0,-0.8379,0.4316,-0.7317,0.918c0.0756,0.3464,0.4,0.582,0.7545,0.582c1.4344,0,6.5198,0,7.9542,0c0.3546,0,0.6789,-0.2356,0.7545,-0.582c0.1062,-0.4864,-0.2632,-0.918,-0.7317,-0.918H3.8z" fill="#fff"/>
  </g>
</svg>