<?xml version="1.0" encoding="UTF-8"?>
<!DOCTYPE svg PUBLIC "-//W3C//DTD SVG 1.1//EN" "http://www.w3.org/Graphics/SVG/1.1/DTD/svg11.dtd">
<svg version="1.1" id="Layer_1" xmlns="http://www.w3.org/2000/svg" xmlns:xlink="http://www.w3.org/1999/xlink" x="0px" y="0px" width="16px" height="16px" viewBox="0 0 16 16" enable-background="new 0 0 16 16" xml:space="preserve">
  <g id="main">
    <g id="icon">
      <path d="M0,13L0.07852,13.39L0.293,13.71L0.6107,13.92L1,14L6.934,14L6.95,13.82L7.154,13.38L7.282,13.2L7.117,13.17L6.67,13.01L6.316,12.71L6.084,12.31L6,11.84L6,11.13L6.084,10.66L6.316,10.26L6.67,9.96L7.117,9.797L7.363,9.753L7.229,9.564L7.027,9.131L6.987,8.67L7.106,8.222L7.379,7.83L7.882,7.327L8.088,7.157L8.32,7.033L8.572,6.957L8.838,6.931L9.246,6.994L9.616,7.177L9.796,7.304L9.828,7.12L9.991,6.671L10.29,6.317L10.69,6.084L11.16,6L11.87,6L12.34,6.084L12.74,6.317L13.04,6.671L13.2,7.12L13.25,7.389L13.44,7.259L13.81,7.075L14.21,7.012L14.48,7.038L14.73,7.114L14.96,7.239L15,7.267L15,4L0,4zz" fill-rule="evenodd" fill="#E9B664"/>
      <path d="M0.6107,0.07852L0.293,0.293L0.07852,0.6107L0,1L0,3L15,3L14.92,2.611L14.71,2.293L14.39,2.079L14,2L8.6,2L8.286,1.969L7.988,1.878L7.712,1.731L7.469,1.531L6.406,0.4686L6.162,0.2688L5.887,0.1219L5.588,0.03105L5.274,0L1,0zz" fill-rule="evenodd" fill="#ecc074"/>
    </g>
    <g id="overlay">
      <path d="M16,11.901v-0.7117c0,-0.1709,-0.1229,-0.3171,-0.2913,-0.3464l-1.0364,-0.1803c-0.0666,-0.2426,-0.1627,-0.481,-0.2881,-0.7109l0.6207,-0.8821c0.0984,-0.1398,0.0819,-0.33,-0.0389,-0.4509l-0.5033,-0.5033c-0.1209,-0.1209,-0.3111,-0.1373,-0.4509,-0.0389l-0.8569,0.6029c-0.2371,-0.1393,-0.4897,-0.2481,-0.7517,-0.3248l-0.185,-1.0632c-0.0293,-0.1684,-0.1754,-0.2913,-0.3464,-0.2913h-0.7118c-0.1709,0,-0.3171,0.1229,-0.3464,0.2913l-0.1802,1.0357c-0.2458,0.0642,-0.4875,0.1577,-0.7208,0.2819l-0.8724,-0.6138c-0.1398,-0.0984,-0.33,-0.0819,-0.4509,0.0389l-0.5033,0.5033c-0.1209,0.1209,-0.1373,0.3111,-0.0389,0.4509l0.5843,0.8304c-0.1491,0.2465,-0.2496,0.5107,-0.3301,0.785l-1.0105,0.1778C7.1226,10.811,7,10.957,7,11.1277v0.713c0,0.1707,0.1226,0.3167,0.2906,0.3462l0.978,0.1721c0.0666,0.2609,0.159,0.5173,0.2932,0.764l-0.5916,0.8368c-0.0988,0.1397,-0.0826,0.3302,0.0382,0.4513l0.5013,0.5024c0.1209,0.1211,0.3114,0.1376,0.4513,0.0391l0.8042,-0.5663c0.2554,0.1527,0.5289,0.2551,0.8134,0.3345l0.1736,0.9884c0.0295,0.1681,0.1756,0.2908,0.3463,0.2908h0.7129c0.1707,0,0.3167,-0.1226,0.3462,-0.2906l0.1722,-0.9787c0.2577,-0.0693,0.5108,-0.1638,0.7542,-0.2994l0.8465,0.5985c0.1397,0.0988,0.3302,0.0826,0.4513,-0.0382l0.5024,-0.5014c0.1211,-0.1209,0.1376,-0.3114,0.0391,-0.4513l-0.585,-0.8307c0.1429,-0.246,0.2535,-0.5079,0.3292,-0.7802l1.0411,-0.1808C15.877,12.2182,16,12.072,16,11.901zM12.2343,12.8625c-0.7309,0.422,-1.6655,0.1716,-2.0875,-0.5593c-0.422,-0.7309,-0.1716,-1.6655,0.5593,-2.0875c0.7309,-0.422,1.6655,-0.1716,2.0875,0.5593C13.2156,11.5059,12.9652,12.4405,12.2343,12.8625z" fill-rule="evenodd" fill="#797979"/>
    </g>
  </g>
</svg>