<?xml version="1.0" encoding="UTF-8"?>
<!DOCTYPE svg PUBLIC "-//W3C//DTD SVG 1.1//EN" "http://www.w3.org/Graphics/SVG/1.1/DTD/svg11.dtd">
<svg version="1.1" id="Layer_1" xmlns="http://www.w3.org/2000/svg" xmlns:xlink="http://www.w3.org/1999/xlink" x="0px" y="0px" width="32px" height="32px" viewBox="0 0 32 32" enable-background="new 0 0 32 32" xml:space="preserve">
  <g id="icon">
    <path d="M8.452,32H1.663C0.746,32,0,31.255,0,30.339v-4.797c0,-0.439,0.17,-0.854,0.479,-1.167l0.01,-0.01c0.083,-0.081,7.892,-7.776,11.015,-10.89c-0.285,-0.957,-0.429,-1.949,-0.429,-2.959c0,-4.932,3.505,-9.205,8.339,-10.173c0.752,-0.203,1.525,-0.318,2.299,-0.34c2.794,-0.081,5.42,0.965,7.387,2.945c1.963,1.975,2.991,4.597,2.894,7.382c-0.026,0.75,-0.14,1.501,-0.338,2.234c-0.969,4.829,-5.248,8.33,-10.189,8.33c-1.13,0,-2.237,-0.18,-3.299,-0.536c-0.778,0.779,-2.209,2.259,-3.143,3.232v2.854c0,0.905,-0.685,1.563,-1.629,1.563l-3.38,-0.001v2.432C10.015,31.299,9.314,32,8.452,32zM2,30h6.015v-3.994l5.01,0.001v-3.221l0.278,-0.29c0.132,-0.137,3.23,-3.369,3.937,-4.027l0.467,-0.435l0.591,0.241c1.009,0.411,2.075,0.619,3.168,0.619c4.001,0,7.463,-2.84,8.234,-6.752l0.017,-0.072c0.163,-0.593,0.256,-1.202,0.278,-1.809c0.078,-2.227,-0.744,-4.324,-2.313,-5.902c-1.574,-1.584,-3.673,-2.42,-5.911,-2.356l0,0c-0.627,0.018,-1.254,0.112,-1.863,0.279L19.836,2.3c-3.917,0.77,-6.761,4.226,-6.761,8.218c0,0.992,0.172,1.963,0.511,2.885l0.221,0.6l-0.452,0.452C10.766,17.044,3.007,24.692,2,25.685V30zM24.175,11.566c-1.946,0,-3.528,-1.579,-3.528,-3.519s1.583,-3.519,3.528,-3.519s3.528,1.579,3.528,3.519S26.121,11.566,24.175,11.566zM24.175,6.527c-0.843,0,-1.528,0.682,-1.528,1.519c0,0.838,0.686,1.519,1.528,1.519s1.528,-0.682,1.528,-1.519C25.704,7.209,25.018,6.527,24.175,6.527z" fill="#fff"/>
  </g>
</svg>